HIERARCHY
ROOT hip
{
  OFFSET 0 0 0
  CHANNELS 6 Xposition Yposition Zposition Zrotation Yrotation Xrotation
  JOINT abdomen
  {
    OFFSET 0 20.6881 -0.73152
    CHANNELS 3 Zrotation Xrotation Yrotation
    JOINT chest
    {
      OFFSET 0 11.7043 -0.48768
      CHANNELS 3 Zrotation Xrotation Yrotation
      JOINT neck
      {
        OFFSET 0 22.1894 -2.19456
        CHANNELS 3 Zrotation Xrotation Yrotation
        JOINT head
        {
          OFFSET -0.24384 7.07133 1.2192
          CHANNELS 3 Zrotation Xrotation Yrotation
          JOINT leftEye
          {
            OFFSET 4.14528 8.04674 8.04672
            CHANNELS 3 Zrotation Xrotation Yrotation
            End Site
            {
              OFFSET 1 0 0
            }
          }
          JOINT rightEye
          {
            OFFSET -3.6576 8.04674 8.04672
            CHANNELS 3 Zrotation Xrotation Yrotation
            End Site
            {
              OFFSET 1 0 0
            }
          }
        }
      }
      JOINT rCollar
      {
        OFFSET -2.68224 19.2634 -4.8768
        CHANNELS 3 Zrotation Xrotation Yrotation
        JOINT rShldr
        {
          OFFSET -8.77824 -1.95073 1.46304
          CHANNELS 3 Zrotation Xrotation Yrotation
          JOINT rForeArm
          {
            OFFSET -28.1742 -1.7115 0.48768
            CHANNELS 3 Zrotation Xrotation Yrotation
            JOINT rHand
            {
              OFFSET -22.5879 0.773209 7.07136
              CHANNELS 3 Zrotation Xrotation Yrotation
              JOINT rThumb1
              {
                OFFSET -1.2192 -0.487915 3.41376
                CHANNELS 3 Zrotation Xrotation Yrotation
                JOINT rThumb2
                {
                  OFFSET -3.37035 -0.52449 3.41376
                  CHANNELS 3 Zrotation Xrotation Yrotation
                  End Site
                  {
                    OFFSET -1.78271 -1.18214 1.43049
                  }
                }
              }
              JOINT rIndex1
              {
                OFFSET -7.75947 0.938293 5.60832
                CHANNELS 3 Zrotation Xrotation Yrotation
                JOINT rIndex2
                {
                  OFFSET -2.54057 -0.884171 1.56538
                  CHANNELS 3 Zrotation Xrotation Yrotation
                  End Site
                  {
                    OFFSET -1.62519 -0.234802 1.16502
                  }
                }
              }
              JOINT rMid1
              {
                OFFSET -8.24714 1.18213 3.41376
                CHANNELS 3 Zrotation Xrotation Yrotation
                JOINT rMid2
                {
                  OFFSET -3.10165 -0.590103 1.0647
                  CHANNELS 3 Zrotation Xrotation Yrotation
                  End Site
                  {
                    OFFSET -2.48547 -0.328903 0.83742
                  }
                }
              }
              JOINT rRing1
              {
                OFFSET -8.82822 0.546677 1.51678
                CHANNELS 3 Zrotation Xrotation Yrotation
                JOINT rRing2
                {
                  OFFSET -2.60934 -0.819778 -0.0198488
                  CHANNELS 3 Zrotation Xrotation Yrotation
                  End Site
                  {
                    OFFSET -2.33842 -0.294052 0.168128
                  }
                }
              }
              JOINT rPinky1
              {
                OFFSET -8.27202 -0.0477905 -0.4584
                CHANNELS 3 Zrotation Xrotation Yrotation
                JOINT rPinky2
                {
                  OFFSET -1.82734 -0.647385 -0.700984
                  CHANNELS 3 Zrotation Xrotation Yrotation
                  End Site
                  {
                    OFFSET -1.69225 -0.51767 -0.607171
                  }
                }
              }
            }
          }
        }
      }
      JOINT lCollar
      {
        OFFSET 2.68224 19.2634 -4.8768
        CHANNELS 3 Zrotation Xrotation Yrotation
        JOINT lShldr
        {
          OFFSET 8.77824 -1.95073 1.46304
          CHANNELS 3 Zrotation Xrotation Yrotation
          JOINT lForeArm
          {
            OFFSET 28.1742 -1.7115 0.48768
            CHANNELS 3 Zrotation Xrotation Yrotation
            JOINT lHand
            {
              OFFSET 22.5879 0.773209 7.07136
              CHANNELS 3 Zrotation Xrotation Yrotation
              JOINT lThumb1
              {
                OFFSET 1.2192 -0.487915 3.41376
                CHANNELS 3 Zrotation Xrotation Yrotation
                JOINT lThumb2
                {
                  OFFSET 3.37035 -0.52449 3.41376
                  CHANNELS 3 Zrotation Xrotation Yrotation
                  End Site
                  {
                    OFFSET 1.78271 -1.18214 1.43049
                  }
                }
              }
              JOINT lIndex1
              {
                OFFSET 7.75947 0.938293 5.60832
                CHANNELS 3 Zrotation Xrotation Yrotation
                JOINT lIndex2
                {
                  OFFSET 2.54057 -0.884171 1.56538
                  CHANNELS 3 Zrotation Xrotation Yrotation
                  End Site
                  {
                    OFFSET 1.62519 -0.234802 1.16502
                  }
                }
              }
              JOINT lMid1
              {
                OFFSET 8.24714 1.18213 3.41376
                CHANNELS 3 Zrotation Xrotation Yrotation
                JOINT lMid2
                {
                  OFFSET 3.10165 -0.590103 1.0647
                  CHANNELS 3 Zrotation Xrotation Yrotation
                  End Site
                  {
                    OFFSET 2.48547 -0.328903 0.83742
                  }
                }
              }
              JOINT lRing1
              {
                OFFSET 8.82822 0.546677 1.51678
                CHANNELS 3 Zrotation Xrotation Yrotation
                JOINT lRing2
                {
                  OFFSET 2.60934 -0.819778 -0.0198488
                  CHANNELS 3 Zrotation Xrotation Yrotation
                  End Site
                  {
                    OFFSET 2.33842 -0.294052 0.168128
                  }
                }
              }
              JOINT lPinky1
              {
                OFFSET 8.27202 -0.0477905 -0.4584
                CHANNELS 3 Zrotation Xrotation Yrotation
                JOINT lPinky2
                {
                  OFFSET 1.82734 -0.647385 -0.700984
                  CHANNELS 3 Zrotation Xrotation Yrotation
                  End Site
                  {
                    OFFSET 1.69225 -0.51767 -0.607171
                  }
                }
              }
            }
          }
        }
      }
    }
  }
  JOINT rButtock
  {
    OFFSET -8.77824 4.35084 1.2192
    CHANNELS 3 Zrotation Xrotation Yrotation
    JOINT rThigh
    {
      OFFSET 0 -1.70687 -2.19456
      CHANNELS 3 Zrotation Xrotation Yrotation
      JOINT rShin
      {
        OFFSET 0 -36.8199 0.73152
        CHANNELS 3 Zrotation Xrotation Yrotation
        JOINT rFoot
        {
          OFFSET 0.73152 -45.1104 -5.12064
          CHANNELS 3 Zrotation Xrotation Yrotation
          End Site
          {
            OFFSET -1.1221 -3.69964 12.103
          }
        }
      }
    }
  }
  JOINT lButtock
  {
    OFFSET 8.77824 4.35084 1.2192
    CHANNELS 3 Zrotation Xrotation Yrotation
    JOINT lThigh
    {
      OFFSET 0 -1.70687 -2.19456
      CHANNELS 3 Zrotation Xrotation Yrotation
      JOINT lShin
      {
        OFFSET 0 -36.8199 0.73152
        CHANNELS 3 Zrotation Xrotation Yrotation
        JOINT lFoot
        {
          OFFSET -0.73152 -45.1104 -5.12064
          CHANNELS 3 Zrotation Xrotation Yrotation
          End Site
          {
            OFFSET 1.1221 -3.69964 12.103
          }
        }
      }
    }
  }
}
MOTION
Frames:	4
Frame Time:	0.00833333
1.78623 79.371 -17.0009 -5.4299 1.9657 13.4883 -0.0791793 -9.79778 2.72258 -1.57384 -4.35083 0.670249 7.67888 -1.78073 0.520551 0.692946 19.5523 -1.34804 -0.0 0.0 0.0 -0.0 0.0 0.0 1.11699e-13 -3.50161e-13 3.66758e-14 49.8047 64.8395 21.4268 -26.9111 -26.0454 60.953 -0.140572 -10.628 -1.51122 -3.89055e-10 1.0464e-08 -3.12082e-09 -6.41092e-10 1.81111e-08 -5.39873e-09 -3.89049e-10 1.0464e-08 -3.12082e-09 7.73091 5.47488 0.417314 -3.89053e-10 1.0464e-08 -3.12081e-09 2.90554 0.965183 0.102902 -3.8905e-10 1.0464e-08 -3.12082e-09 10.2786 0.731801 0.0259123 -3.89063e-10 1.0464e-08 -3.12081e-09 2.22167 -0.733487 -0.20892 1.11643e-13 -3.50158e-13 3.6477e-14 -81.4029 47.3376 20.8186 28.2205 -32.1476 -70.6915 0.290491 -15.1614 2.18249 2.29499e-10 8.71972e-09 3.53423e-09 3.5372e-10 1.48791e-08 6.10892e-09 2.29497e-10 8.71972e-09 3.53424e-09 -7.73091 5.47488 -0.417314 2.29501e-10 8.71972e-09 3.53423e-09 -2.90554 0.965183 -0.102902 2.29494e-10 8.71972e-09 3.53423e-09 -10.2786 0.731801 -0.0259123 2.295e-10 8.71972e-09 3.53422e-09 -2.22167 -0.733487 0.20892 -2.03217e-16 0.0 -3.88251e-19 -1.9687 -41.7851 -2.48613 -0.808046 56.1094 1.46849 -4.382 -11.917 -11.9429 2.03217e-16 0.0 3.88251e-19 -3.5991 -21.2691 -7.12318 0.152055 36.0032 -1.07521 11.519 -22.2364 23.2982
1.8891 79.4009 -17.3287 -5.4692 1.6596 13.6518 0.116983 -9.9802 2.7329 -1.5525 -4.3315 0.667521 7.69116 -1.76438 0.601101 0.464168 19.4142 -1.15693 -0.0 0.0 0.0 -0.0 0.0 0.0 1.56393e-14 -3.27498e-13 3.97872e-14 53.4921 64.6417 17.7552 -26.763 -25.576 60.1942 -0.138388 -10.5459 -1.49927 2.58001e-11 1.05688e-08 -3.22365e-09 7.58504e-11 1.82763e-08 -5.57167e-09 2.58051e-11 1.05688e-08 -3.22365e-09 7.73091 5.47488 0.417314 2.58017e-11 1.05688e-08 -3.22365e-09 2.90554 0.965183 0.102902 2.58059e-11 1.05688e-08 -3.22365e-09 10.2786 0.731801 0.0259123 2.57919e-11 1.05688e-08 -3.22364e-09 2.22167 -0.733487 -0.20892 1.5628e-14 -3.27499e-13 3.96261e-14 -81.8755 47.2826 20.9629 28.1511 -31.6034 -69.8142 0.271176 -14.6572 2.10663 3.8525e-10 8.63815e-09 3.359e-09 6.23919e-10 1.47518e-08 5.80897e-09 3.85249e-10 8.63816e-09 3.35901e-09 -7.73091 5.47488 -0.417314 3.85253e-10 8.63816e-09 3.359e-09 -2.90554 0.965183 -0.102902 3.85246e-10 8.63816e-09 3.359e-09 -10.2786 0.731801 -0.0259123 3.85252e-10 8.63816e-09 3.35899e-09 -2.22167 -0.733487 0.20892 -2.03217e-16 0.0 -3.88251e-19 -1.7477 -41.1872 -2.48785 -0.802307 56.0004 1.46513 -4.41217 -12.1518 -11.9145 2.03217e-16 0.0 3.88251e-19 -3.69507 -21.6039 -7.14476 0.154095 35.9901 -1.06131 11.5364 -22.2013 23.3706
1.98603 79.4316 -17.6487 -5.4962 1.3518 13.8123 0.303184 -10.1509 2.74256 -1.53124 -4.31057 0.665534 7.707 -1.74238 0.681846 0.245802 19.2767 -0.968079 -0.0 0.0 0.0 -0.0 0.0 0.0 -1.00706e-13 -2.49415e-13 4.04154e-14 57.0659 64.2654 14.1934 -26.599 -25.0794 59.3994 -0.136528 -10.4758 -1.48907 5.28886e-10 9.16109e-09 -2.91191e-09 9.41118e-10 1.5821e-08 -5.02753e-09 5.2889e-10 9.16109e-09 -2.91192e-09 7.73091 5.47488 0.417314 5.28886e-10 9.16109e-09 -2.91191e-09 2.90554 0.965183 0.102902 5.28892e-10 9.16109e-09 -2.91191e-09 10.2786 0.731801 0.0259123 5.28878e-10 9.16109e-09 -2.9119e-09 2.22167 -0.733487 -0.20892 -1.00654e-13 -2.49422e-13 4.02881e-14 -82.3369 47.2032 21.0927 28.0683 -31.0385 -68.9193 0.253921 -14.199 2.03789 5.46194e-10 7.28277e-09 2.67181e-09 9.09435e-10 1.2456e-08 4.62463e-09 5.46194e-10 7.28278e-09 2.67182e-09 -7.73091 5.47488 -0.417314 5.46197e-10 7.28278e-09 2.67181e-09 -2.90554 0.965183 -0.102902 5.46193e-10 7.28278e-09 2.67181e-09 -10.2786 0.731801 -0.0259123 5.46198e-10 7.28278e-09 2.6718e-09 -2.22167 -0.733487 0.20892 -2.03217e-16 0.0 -3.88251e-19 -1.52461 -40.5457 -2.44381 -0.791687 55.7834 1.45556 -4.43641 -12.4195 -11.8572 2.03217e-16 0.0 3.88251e-19 -3.79245 -21.9238 -7.16087 0.156251 35.9831 -1.04813 11.5505 -22.1605 23.4358
2.07585 79.4635 -17.9587 -5.5135 1.0534 13.9737 0.490402 -10.3217 2.74662 -1.51325 -4.28714 0.662143 7.72709 -1.71563 0.764948 0.0247562 19.1457 -0.775208 -0.0 0.0 0.0 -0.0 0.0 0.0 -1.98774e-13 -1.36772e-13 3.67759e-14 60.4541 63.7457 10.8128 -26.423 -24.571 58.5905 -0.134828 -10.4116 -1.47973 9.6956e-10 6.74071e-09 -2.27865e-09 1.69561e-09 1.16188e-08 -3.92865e-09 9.69563e-10 6.74071e-09 -2.27865e-09 7.73091 5.47488 0.417314 9.69559e-10 6.74071e-09 -2.27865e-09 2.90554 0.965183 0.102902 9.69567e-10 6.74071e-09 -2.27865e-09 10.2786 0.731801 0.0259123 9.69553e-10 6.74071e-09 -2.27864e-09 2.22167 -0.733487 -0.20892 -1.98668e-13 -1.36785e-13 3.66715e-14 -82.7782 47.0982 21.1921 27.9723 -30.4532 -67.9881 0.238954 -13.7896 1.97668 6.52124e-10 5.20908e-09 1.68729e-09 1.10366e-09 8.93185e-09 2.9258e-09 6.52125e-10 5.20908e-09 1.68729e-09 -7.73091 5.47488 -0.417314 6.52127e-10 5.20909e-09 1.68728e-09 -2.90554 0.965183 -0.102902 6.52126e-10 5.20909e-09 1.68728e-09 -10.2786 0.731801 -0.0259123 6.5213e-10 5.20908e-09 1.68727e-09 -2.22167 -0.733487 0.20892 -2.03217e-16 0.0 -3.88251e-19 -1.29787 -39.8773 -2.37333 -0.776688 55.467 1.44071 -4.45992 -12.7101 -11.7917 2.03217e-16 0.0 3.88251e-19 -3.88386 -22.2344 -7.18117 0.158393 35.9741 -1.03572 11.5618 -22.1137 23.4959
